<?xml version="1.0" encoding="utf-8"?>
<svg xmlns="http://www.w3.org/2000/svg" fill="none" height="48" viewBox="0 0 49 48" width="49">
<g clip-path="url(#clip0_9759_4296)">
<path clip-rule="evenodd" d="M0.5 0V48H48.5V0H0.5Z" fill="#F99E1C" fill-rule="evenodd"/>
<path d="M22.4933 10.1137V0H0.5V48H25.8691V32.698L19.2023 22.2341L22.4933 10.1137Z" fill="#00428C"/>
<path d="M21.8912 1.72355C22.6312 1.46728 23.4364 1.68122 24.1111 2.0155C24.582 2.32042 25.0529 2.62859 25.5812 2.82809C25.6212 2.90432 25.7044 3.05516 25.7444 3.12977C25.7231 3.18005 25.6819 3.28385 25.6606 3.33413C26.0325 4.19376 26.2674 5.21234 25.8957 6.11559C25.6444 6.42052 25.2101 6.46772 24.858 6.58579C24.8536 7.0221 24.9206 7.45369 24.9551 7.88675C25.7057 8.0084 26.3451 7.48451 27.088 7.53641C27.191 7.11957 27.2731 6.69592 27.4087 6.28736C27.5609 6.55822 27.5652 6.8698 27.5651 7.17472C27.7591 7.22987 27.9563 7.28015 28.1549 7.32864C28.1563 7.40341 28.1568 7.55263 28.1564 7.62724C31.4144 7.6467 34.6709 7.61248 37.929 7.64508C37.9202 7.75667 37.9029 7.98066 37.8957 8.09274C37.9799 8.09274 38.1516 8.09436 38.2371 8.09436C38.2376 7.50089 38.2446 6.90548 38.2467 6.31201C38.3293 6.30861 38.4912 6.30374 38.5722 6.30212C38.5712 6.76924 38.5698 7.23635 38.5717 7.70363C38.6422 7.79122 38.7836 7.96623 38.8546 8.05381C38.9085 7.99039 39.016 7.86583 39.0697 7.80241C39.316 8.03451 39.1731 8.35241 39.1603 8.63755C40.072 8.62765 40.9927 8.68929 41.902 8.61468C41.9703 8.5644 42.1069 8.46546 42.1753 8.41534C42.2998 8.46384 42.4256 8.51266 42.55 8.56294C42.9598 8.55288 43.3711 8.55158 43.7824 8.54996C43.7727 8.76244 43.7649 8.97475 43.7554 9.18738C43.2259 9.17911 42.6949 9.16792 42.1729 9.25859C41.8379 8.96842 41.3855 9.06055 40.9791 9.04952C40.3539 9.07871 39.7097 8.96842 39.1032 9.16776C38.7427 9.26832 38.3481 9.24415 38.032 9.03962C37.9543 9.22939 38.0686 9.65434 37.7494 9.63796C36.4927 9.65434 35.2378 9.62677 33.9827 9.64623C33.8105 9.73706 33.6367 9.82302 33.4648 9.9072C33.2801 10.4489 32.758 10.8105 32.3135 11.1413C32.2532 11.9734 32.5771 12.7503 32.6999 13.5579C32.4517 13.6291 32.2019 13.7024 31.9568 13.7835C31.6002 14.6139 31.8085 15.7475 30.9919 16.3268C30.3662 16.69 29.9486 17.4799 29.1086 17.3551C29.5339 17.712 28.9905 17.6 29.049 17.3146C27.5293 17.18 26.254 16.2863 24.9369 15.6052C24.873 15.9781 24.7737 16.3448 24.6708 16.7098C25.1722 16.8055 25.5845 17.1753 25.6703 17.691C25.8235 18.8152 25.4959 19.9313 25.4937 21.0583C25.5251 21.7201 25.2379 22.3265 24.8815 22.8666C24.57 23.217 24.0849 22.8568 23.7144 22.805C23.629 22.9688 23.5455 23.1328 23.4635 23.2981C23.566 23.7391 23.6085 24.1981 23.7531 24.6295C24.5748 25.5459 25.3216 26.5387 25.8928 27.6335C26.4801 28.8734 27.0024 30.1434 27.4576 31.4384C27.5012 31.69 27.7371 31.7803 27.9441 31.8715C27.97 32.131 27.9959 32.3902 28.0202 32.6531C28.1004 32.7715 28.1823 32.8897 28.2657 33.0098C28.3059 34.6092 28.0999 36.2017 27.8419 37.7799C27.6839 38.4921 28.0954 39.1877 27.9225 39.9046C27.9396 40.2717 27.6856 40.5489 27.565 40.8732C27.5376 41.6307 27.4955 42.3977 27.5737 43.1538C27.6282 43.7085 28.0942 44.0652 28.409 44.479C28.7532 44.8473 29.04 45.3418 29.5638 45.4731C30.0568 45.6207 30.5267 45.8347 30.9602 46.1155C31.0909 46.4446 31.0644 46.7936 30.9991 47.1355C30.0491 47.3107 29.0813 47.2233 28.1225 47.238C27.3836 47.2768 26.7273 46.8794 26.0101 46.7966C25.3155 46.779 24.4665 47.1243 23.9363 46.5015C24.1681 45.6374 24.1921 44.7093 24.6114 43.903C24.7499 42.99 24.5034 42.0637 24.5623 41.1425C24.4837 41.076 24.3256 40.943 24.2466 40.8762C24.3074 40.2746 24.0143 39.7392 23.9189 39.1636C23.8598 38.3229 23.7886 37.4831 23.6967 36.6461C23.6232 36.239 23.836 35.8662 24.1243 35.5953C24.1532 35.1249 24.2196 34.6593 24.2676 34.1923C24.1998 33.8889 23.96 33.6636 23.8061 33.4041C23.285 33.6233 22.5844 33.5194 22.2783 33.0098C21.5518 31.9167 20.8266 30.8235 20.0917 29.7367C19.8004 29.7174 19.4925 29.748 19.2212 29.6313C18.9094 29.3087 18.7482 28.8788 18.5502 28.4863C18.2614 28.8091 18.2792 29.3036 17.9376 29.5974C17.2143 30.2885 17.0168 31.3038 16.6356 32.1892C16.344 32.7632 16.5016 33.4558 16.1771 34.0155C16.0036 34.317 15.5725 34.3771 15.457 34.7212C15.3057 35.0923 15.1283 35.4769 14.7788 35.7027C14.3999 35.9505 14.2967 36.4212 14.126 36.8101C13.9699 37.1687 14.1959 37.5449 14.1401 37.9132C13.8931 39.0828 13.1437 40.0607 12.824 41.2059C12.6782 41.7217 12.4704 42.3023 11.8705 42.4125C11.1811 43.6322 10.7962 45.1245 11.173 46.4978C11.4067 46.9292 11.3907 47.4142 11.3149 47.8894C10.2311 47.9739 9.1192 48.1197 8.05736 47.8166C7.81109 47.3217 7.85037 46.7395 7.90555 46.2047C8.24295 44.7982 8.6874 43.4164 8.96336 41.9956C8.63164 41.6988 8.71238 41.2448 8.7212 40.8473C8.71468 40.1061 9.22186 39.5124 9.57546 38.9042C9.71071 38.2798 9.65339 37.6088 9.97908 37.0357C10.3627 36.3188 10.688 35.5437 11.2764 34.9645C11.3912 34.4536 11.7696 34.0677 11.9246 33.5758C12.0893 33.1411 11.8087 32.7 11.8684 32.2557C12.016 30.9076 12.2691 29.5729 12.4896 28.2348C12.0903 27.899 12.223 27.3656 12.098 26.9129C12.1622 26.7345 12.2426 26.5643 12.3392 26.3987C12.2394 26.3063 12.1414 26.2122 12.0414 26.1199C12.1416 25.6442 12.1194 24.7927 12.8471 24.9473C12.9023 23.3724 12.3662 21.8477 12.5591 20.2711C12.6555 20.3844 12.7502 20.4998 12.8468 20.6149L12.7983 20.0813C13.1038 19.9191 13.4284 19.7942 13.7689 19.731C13.2155 19.6581 12.6772 19.517 12.1352 19.3903C12.0062 19.0447 12.0817 18.6767 12.1322 18.3231C12.3502 17.1294 12.4355 15.9194 12.4868 14.7094C13.1019 14.4957 13.7777 14.6772 14.3786 14.3915C14.2022 12.8783 14.1652 11.2987 14.7116 9.84686C15.1517 8.61078 15.9853 7.41866 17.2768 6.98414C17.8866 6.83833 18.6536 6.67435 19.0803 7.26636C19.1992 7.15769 19.3181 7.04578 19.437 6.93711C18.4665 4.98202 19.6585 2.12579 21.8912 1.72355ZM29.7029 10.203C29.4428 10.362 29.1874 10.5438 29.4579 10.8325C29.3247 10.9118 29.1911 10.9882 29.0562 11.061C28.8447 11.2232 28.3712 11.3155 28.4242 11.6435C28.6584 12.0239 28.8596 12.4237 29.0258 12.8387C29.5448 12.4139 29.9598 11.8427 30.2421 11.238C30.3008 11.178 30.4199 11.058 30.4784 10.9994C30.4542 10.7221 30.3944 10.451 30.2875 10.1949C30.0932 10.1983 29.8972 10.2014 29.7029 10.203Z" fill="#FDFDFC"/>
<path clip-rule="evenodd" d="M46.7222 1.77778H2.27778V46.2222H46.7222V1.77778ZM0.5 0V48H48.5V0H0.5Z" fill="white" fill-rule="evenodd"/>
</g>
<defs>
<clipPath id="clip0_9759_4296">
<rect fill="white" height="48" transform="translate(0.5)" width="48"/>
</clipPath>
</defs>
</svg>