<?xml version="1.0" encoding="utf-8"?>
<svg xmlns="http://www.w3.org/2000/svg" fill="none" height="48" viewBox="0 0 45 48" width="45">
<g clip-path="url(#clip0_9759_4305)">
<path d="M2.75 47.5207C3.4136 46.6635 3.97582 45.9262 4.53802 45.1889C5.45969 43.9908 6.37211 42.7742 7.30299 41.5851C7.51498 41.3086 7.57949 41.023 7.57949 40.6911C7.57949 35.8433 7.59793 30.9861 7.59793 26.1382C7.60714 19.3824 7.59793 12.6267 7.63479 5.87097C7.63479 5.14286 7.44125 4.59907 6.96198 4.07373C6.13249 3.15207 5.33986 2.19355 4.53802 1.24424C4.38133 1.05991 4.19701 0.894009 4.00345 0.746542C3.82834 0.608294 3.6993 0.442395 3.78226 0.193548C3.87443 -0.0460829 4.08641 0.0276497 4.26152 0.0276497C6.54723 0.0184332 8.83295 0.0184332 11.1279 0.00921658C13.091 0.00921658 15.0634 0.0184332 17.0265 0C17.3952 0 17.4874 0.101382 17.4874 0.460829C17.4781 13.6682 17.4781 26.8755 17.4781 40.0829C17.4781 40.1474 17.4781 40.2027 17.4781 40.2672C17.4874 40.7465 17.6348 40.9215 18.1049 40.9215C19.1463 40.9215 20.1877 40.8939 21.2384 40.8939C24.8605 40.8939 28.4826 40.8571 32.114 40.9032C35.3859 40.9493 38.6578 40.9677 41.9204 40.9677C42.243 40.9677 42.3721 41.023 42.1508 41.3364C42.031 41.4931 41.9389 41.6774 41.8006 41.8248C40.0863 43.6221 38.372 45.4193 36.6577 47.2166C36.4734 47.4101 36.2892 47.4931 36.0219 47.5022C25.8744 47.5851 15.7269 47.5207 5.57027 47.5299C4.66705 47.5207 3.78226 47.5207 2.75 47.5207Z" fill="#CD9D3D"/>
<path d="M19.7453 21.253C19.7453 16.8752 19.7453 12.5065 19.7363 8.12863C19.7363 7.74155 19.7822 7.56643 20.2615 7.52033C23.8283 7.13325 27.22 7.70467 30.4367 9.26227C32.5932 10.3038 34.4551 11.76 36.0679 13.5296C36.3444 13.8245 36.4735 14.0088 36.0403 14.3406C33.9482 15.9351 31.8928 17.5664 29.8192 19.1885C29.22 19.6585 28.6301 20.1471 28.0219 20.6079C27.8191 20.7553 27.8006 20.9396 27.8284 21.1332C27.9389 22.0642 27.9204 22.995 27.9297 23.9259C27.9482 25.0503 27.8284 26.1471 27.5519 27.2346C27.2109 28.5894 26.5749 29.7968 25.7639 30.9212C25.3583 31.4742 24.9436 32.0364 24.4643 32.5249C23.7914 33.2161 23.0357 33.8245 22.1601 34.2485C21.5333 34.5526 20.9251 34.9304 20.1971 34.958C19.8559 34.9765 19.7177 34.9121 19.727 34.5157C19.7453 30.0917 19.7363 25.677 19.7453 21.253Z" fill="#177685"/>
<path d="M27.699 38.6362C25.2289 38.6362 22.7589 38.627 20.2797 38.6455C19.8004 38.6455 19.653 38.4888 19.7174 38.0371C19.7543 37.7607 19.653 37.4381 19.7728 37.226C19.8926 37.0049 20.2519 37.1616 20.5009 37.1062C22.6298 36.5534 24.4271 35.4473 25.9571 33.8804C27.0539 32.756 27.957 31.4842 28.6574 30.0833C29.4318 28.5257 29.8648 26.8666 29.9387 25.1155C29.9663 24.5256 30.0676 23.9266 30.04 23.3275C30.0215 22.9035 29.8833 22.4888 29.9202 22.0464C29.9387 21.7975 30.0124 21.6317 30.2243 21.475C32.547 19.6592 34.8695 17.8251 37.192 16.0003C37.3027 15.9174 37.4224 15.8528 37.5331 15.7607C37.6713 15.6501 37.745 15.6501 37.8465 15.816C39.1184 17.8251 40.0031 19.9819 40.4639 22.3322C40.851 24.3137 40.8788 26.2952 40.6574 28.2768C40.5376 29.3551 40.2981 30.415 39.9479 31.4474C39.4132 33.0509 38.7037 34.5809 37.745 35.9911C37.1829 36.8114 36.5562 37.5763 35.9202 38.3414C35.7266 38.581 35.4777 38.6362 35.1829 38.6362C32.6759 38.627 30.1874 38.627 27.699 38.6362Z" fill="#27A0A8"/>
<path d="M22.1136 3.38258C25.5054 3.38258 28.5837 4.04618 31.4961 5.40102C35.7635 7.38258 39.1091 10.4056 41.4962 14.4793C42.6943 16.5162 43.5239 18.6913 44.0215 20.9955C44.5099 23.272 44.6851 25.5669 44.4179 27.8895C44.1045 30.6361 43.3763 33.272 42.0859 35.7328C41.5883 36.682 41.0445 37.5945 40.4363 38.4793C40.3072 38.6636 40.1598 38.7558 39.9477 38.7558C39.3302 38.7558 38.722 38.7651 38.1045 38.7558C38.003 38.7558 37.8741 38.7834 37.8372 38.6452C37.8095 38.5437 37.8924 38.4793 37.9478 38.4056C40.0031 35.9355 41.321 33.0968 42.0122 29.9816C42.5008 27.7604 42.6299 25.5023 42.3256 23.2167C42.04 21.0784 41.487 19.0232 40.5744 17.0692C39.7819 15.3641 38.7588 13.8157 37.5146 12.3964C36.3993 11.1245 35.1643 9.99086 33.7727 9.02313C31.6159 7.52082 29.2566 6.47935 26.6851 5.90793C24.6114 5.44709 22.51 5.29963 20.3903 5.5024C19.7911 5.55768 19.7819 5.53925 19.7819 4.9494C19.7819 4.59917 19.7911 4.23972 19.7819 3.8895C19.7726 3.613 19.8648 3.46553 20.169 3.46553C20.8787 3.45631 21.5791 3.3365 22.1136 3.38258Z" fill="#CD9D3D"/>
<path d="M5.54318 11.0137C5.54318 12.0459 5.54318 12.9399 5.54318 13.8432C5.54318 14.1934 5.39571 14.4791 5.20215 14.774C4.03166 16.5805 3.20217 18.5344 2.65839 20.6174C1.99479 23.1703 1.86576 25.7603 2.20677 28.3593C2.45563 30.2395 2.98097 32.0644 3.75516 33.8063C4.18834 34.7832 4.71369 35.7234 5.28511 36.6266C5.67221 37.2348 5.43257 37.917 5.5063 38.5528C5.5524 38.9215 5.35884 39.1519 5.10999 39.3731C4.9441 39.5298 4.86115 39.5114 4.71369 39.327C3.81967 38.1933 3.08235 36.9768 2.41875 35.6865C1.51553 33.963 0.879586 32.1381 0.474057 30.2303C-0.0328553 27.8707 -0.115804 25.4928 0.14226 23.0966C0.400323 20.6911 1.07313 18.387 2.09618 16.2026C2.90724 14.4607 3.9487 12.857 5.1653 11.3731C5.23903 11.2717 5.34963 11.1888 5.54318 11.0137Z" fill="#6F5322"/>
<path d="M5.54043 18.4336C5.54043 23.392 5.54043 28.2676 5.54043 33.1986C3.43905 30.7746 3.42983 21.3645 5.54043 18.4336Z" fill="#177685"/>
</g>
<defs>
<clipPath id="clip0_9759_4305">
<rect fill="white" height="48" width="44.5714"/>
</clipPath>
</defs>
</svg>